PathFileType	4	(X/Y/Z)	markers
DataRate	CameraRate	NumFrames	NumMarkers	Units	OrigDataRate	OrigDataStartFrame	OrigNumFrames
200	200	4	49	mm	200	165	219
Frame#	Time	RASI			LASI			RPSI			LPSI			RTH1			RTH2			RTH3			RTH4			RLFC			RMFC			RTB1			RTB2			RTB3			RTB4			RLMAL			RMMAL			RCAL			RTOE			RMT5			LTH1			LTH2			LTH3			LTH4			LLFC			LMFC			LTB1			LTB2			LTB3			LTB4			LLMAL			LMMAL			LCAL			LTOE			LMT5			C7			T10			CLAV			RACR			LACR			RLEL			RFAradius			LLEL			LFAradius			RHJC			LHJC			RKJC			LKJC			RAJC			LAJC		
		X1	Y1	Z1	X2	Y2	Z2	X3	Y3	Z3	X4	Y4	Z4	X5	Y5	Z5	X6	Y6	Z6	X7	Y7	Z7	X8	Y8	Z8	X9	Y9	Z9	X10	Y10	Z10	X11	Y11	Z11	X12	Y12	Z12	X13	Y13	Z13	X14	Y14	Z14	X15	Y15	Z15	X16	Y16	Z16	X17	Y17	Z17	X18	Y18	Z18	X19	Y19	Z19	X20	Y20	Z20	X21	Y21	Z21	X22	Y22	Z22	X23	Y23	Z23	X24	Y24	Z24	X25	Y25	Z25	X26	Y26	Z26	X27	Y27	Z27	X28	Y28	Z28	X29	Y29	Z29	X30	Y30	Z30	X31	Y31	Z31	X32	Y32	Z32	X33	Y33	Z33	X34	Y34	Z34	X35	Y35	Z35	X36	Y36	Z36	X37	Y37	Z37	X38	Y38	Z38	X39	Y39	Z39	X40	Y40	Z40	X41	Y41	Z41	X42	Y42	Z42	X43	Y43	Z43	X44	Y44	Z44	X45	Y45	Z45	X46	Y46	Z46	X47	Y47	Z47	X48	Y48	Z48	X49	Y49	Z49
165	0.820000	697.739230	1021.836545	-1485.152392	701.052994	1025.183491	-1723.064004	535.309017	1060.579478	-1558.724198	534.012831	1060.108564	-1648.910931	637.500350	772.496327	-1416.538969	693.234770	758.786529	-1447.733757	672.941037	659.484718	-1446.008552	629.795125	665.701471	-1420.641551	594.185845	548.955957	-1424.764305	589.777729	512.167393	-1539.787613	555.717024	429.850367	-1388.330182	600.145692	425.150864	-1410.347390	595.938401	317.899179	-1414.900533	538.946393	328.101424	-1385.076210	525.600444	128.940178	-1396.704150	548.862289	131.055578	-1495.799738	459.389152	90.281199	-1449.769781	678.474122	65.796500	-1467.728557	645.329172	58.463119	-1374.187897	668.506646	771.326216	-1792.177081	701.681882	770.606646	-1755.049533	692.264013	668.310825	-1743.311536	649.436887	665.930417	-1791.826959	597.456991	532.172447	-1800.835322	567.265845	517.210197	-1678.262814	581.226261	441.833385	-1831.498081	619.049820	434.809118	-1802.146061	605.206382	333.899713	-1795.215683	554.705108	337.454338	-1835.760207	539.888715	124.550323	-1807.630618	533.197813	127.522875	-1709.913665	452.865519	87.189682	-1766.560596	670.389100	69.625682	-1723.226992	644.058259	58.042786	-1819.506159	534.088035	1559.700146	-1613.850674	491.805976	1347.751254	-1609.451328	648.128433	1501.701257	-1586.803058	545.585498	1564.835559	-1482.548739	538.777246	1560.862473	-1738.137807	551.410772	1501.278845	-1168.471018	613.593298	1557.490851	-915.350703	581.751834	1482.217328	-2053.594597	677.052266	1540.981219	-2294.923545	631.052447	953.020026	-1520.208749	633.442848	955.434363	-1691.827553	591.981787	530.561675	-1482.275959	582.361418	524.691322	-1739.549068	537.231367	129.997878	-1446.251944	536.543264	126.036599	-1758.772141
166	0.825000	697.761635	1021.842561	-1485.155380	701.019824	1025.190302	-1723.118154	535.251842	1060.585819	-1558.768617	533.916634	1060.129706	-1648.958074	637.694346	772.564252	-1416.560164	693.154107	758.834410	-1447.657774	672.967466	659.495594	-1445.983140	629.777348	665.664418	-1420.673900	594.200768	548.962002	-1424.729240	589.681747	512.102502	-1539.793635	555.832629	429.876285	-1388.361190	600.164902	425.120391	-1410.373769	596.008495	317.966373	-1414.887941	538.934200	328.117131	-1385.066682	525.608834	128.922297	-1396.667470	548.937570	131.092421	-1495.795132	459.351463	90.288230	-1449.722430	678.459514	65.797497	-1467.736009	645.308692	58.419366	-1374.189448	668.516866	771.306231	-1792.176463	701.810866	770.674728	-1755.158621	692.351592	668.399506	-1743.295103	649.436217	665.946539	-1791.796548	597.451540	532.154855	-1800.839852	567.253220	517.192861	-1678.286572	581.202634	441.763882	-1831.458920	619.049819	434.809119	-1802.146061	605.249612	333.916042	-1795.256622	554.474052	337.180440	-1835.760617	539.949279	124.540918	-1807.607890	533.234469	127.539919	-1709.908269	452.894820	87.183670	-1766.555271	670.396031	69.614115	-1723.233669	644.063203	58.027076	-1819.529947	534.229975	1559.625191	-1613.791084	491.887002	1347.774797	-1609.460623	648.175162	1501.743540	-1586.790048	545.575517	1564.801374	-1482.530082	538.810381	1560.844483	-1738.143450	551.349835	1501.352542	-1168.478386	613.641519	1557.474828	-915.366992	581.763022	1482.182298	-2053.568159	677.079873	1540.993419	-2294.945173	631.050560	953.011427	-1520.204984	633.400829	955.426294	-1691.857602	591.941257	530.532252	-1482.261437	582.352380	524.673858	-1739.563212	537.273202	130.007359	-1446.231301	536.591874	126.040418	-1758.758079
167	0.830000	697.706911	1021.800579	-1485.125813	701.159290	1025.178583	-1723.108563	535.309017	1060.579477	-1558.724198	534.036392	1060.140690	-1648.869089	637.712470	772.592436	-1416.563164	693.240297	758.784171	-1447.732114	672.967181	659.460720	-1445.982523	629.722442	665.643352	-1420.667686	594.174714	548.943066	-1424.728608	589.776816	512.159888	-1539.836122	555.749027	429.848473	-1388.357220	600.176739	425.127949	-1410.368824	596.080569	317.959956	-1414.942741	538.913455	328.075968	-1385.063136	525.609275	128.934318	-1396.651550	548.840891	131.033941	-1495.806235	459.367146	90.278642	-1449.775802	678.485090	65.818944	-1467.738189	645.362012	58.464677	-1374.223672	668.550402	771.349119	-1792.213237	701.745801	770.521842	-1755.082795	692.416673	668.405187	-1743.362174	649.468080	665.914735	-1791.788756	597.454663	532.183417	-1800.844593	567.223052	517.188738	-1678.348051	581.108028	441.742645	-1831.422285	618.984209	434.776787	-1802.145910	605.118466	334.056318	-1795.227157	554.474036	337.180466	-1835.760618	539.925478	124.540386	-1807.606179	533.193612	127.510102	-1709.872538	452.830264	87.175923	-1766.595794	670.410966	69.620643	-1723.211354	644.030322	57.965162	-1819.483278	534.236820	1559.681355	-1613.846832	491.919060	1347.775407	-1609.398471	648.147210	1501.733100	-1586.782529	545.627749	1564.831170	-1482.543701	538.885220	1560.897110	-1738.144977	551.423553	1501.314090	-1168.501609	613.601988	1557.453541	-915.360535	581.775792	1482.212640	-2053.575918	677.059373	1541.015959	-2294.948807	631.014907	952.981671	-1520.242371	633.505234	955.418349	-1691.907980	591.975765	530.551477	-1482.282365	582.338858	524.686078	-1739.596322	537.225083	129.984130	-1446.228892	536.559545	126.025244	-1758.739359
168	0.835000	697.834798	1021.830048	-1485.166201	701.175289	1025.167225	-1723.130188	535.434071	1060.472041	-1558.745335	533.940196	1060.161831	-1648.916235	637.809005	772.536256	-1416.568287	693.210424	758.775329	-1447.730012	673.030430	659.505920	-1445.941940	629.776421	665.672085	-1420.638470	594.170617	548.936487	-1424.780956	589.699206	512.121646	-1539.793666	555.799393	429.848086	-1388.369752	600.184239	425.150394	-1410.417209	595.984036	317.933748	-1414.918128	538.989920	328.119167	-1385.075265	525.585980	128.928012	-1396.688935	548.854842	131.009242	-1495.809948	459.305139	90.291079	-1449.754349	678.486181	65.828262	-1467.726178	645.300602	58.381821	-1374.203285	668.560622	771.329133	-1792.212620	701.882935	770.579620	-1755.120328	692.355296	668.381136	-1743.316047	649.486951	665.922265	-1791.821388	597.460290	532.184780	-1800.821266	567.202834	517.218882	-1678.315501	581.120094	441.722384	-1831.421637	619.049816	434.809123	-1802.146061	605.185531	334.008709	-1795.243712	554.523056	337.211537	-1835.799130	539.953797	124.561892	-1807.655393	533.220387	127.529358	-1709.907019	452.871440	87.239340	-1766.612632	670.395365	69.638773	-1723.244254	644.020499	57.939965	-1819.454865	534.300955	1559.666011	-1613.920315	491.970992	1347.728277	-1609.438166	648.179094	1501.677923	-1586.822648	545.622944	1564.842705	-1482.548457	538.862254	1560.883693	-1738.130365	551.338577	1501.396947	-1168.548602	613.616135	1557.445868	-915.352906	581.804578	1482.193859	-2053.594046	677.105087	1541.031141	-2294.975831	631.143793	952.987793	-1520.236200	633.553428	955.395038	-1691.889558	591.934912	530.529067	-1482.287311	582.331562	524.701831	-1739.568384	537.220411	129.968627	-1446.249441	536.587092	126.045625	-1758.781206
